<svg t="1700536811102" class="icon" viewBox="0 0 1024 1024" version="1.1" xmlns="http://www.w3.org/2000/svg" p-id="5871" width="200" height="200"><path d="M96.768 618.617905c57.222095 0 103.619048-46.713905 103.619048-104.326095 0-57.10019-45.592381-103.472762-102.107429-104.301715V243.809524a73.142857 73.142857 0 0 1 73.142857-73.142857h682.666667a73.142857 73.142857 0 0 1 73.142857 73.142857v166.229333l-3.486476 0.073143c-54.905905 2.633143-98.596571 48.274286-98.596572 104.17981 0 57.10019 45.543619 103.497143 102.058667 104.326095L927.232 780.190476a73.142857 73.142857 0 0 1-73.142857 73.142857h-682.666667a73.142857 73.142857 0 0 1-73.142857-73.142857v-161.596952l-1.511619 0.024381z m74.654476 56.563809V780.190476h682.666667v-104.984381a177.566476 177.566476 0 0 1-102.083048-160.914285 176.956952 176.956952 0 0 1 102.083048-160.49981V243.809524h-682.666667v109.592381a177.566476 177.566476 0 0 1 102.107429 160.914285 177.566476 177.566476 0 0 1-96.304762 158.037334l-5.802667 2.852571z m195.047619-65.657904h77.726476v97.523809H366.445714v-97.523809z m0-146.285715h77.726476v97.52381H366.445714v-97.52381z m0-146.285714h77.726476v97.523809H366.445714v-97.523809z" p-id="5872"></path></svg>