<svg t="1697771748615" class="icon" viewBox="0 0 1024 1024" version="1.1" xmlns="http://www.w3.org/2000/svg" p-id="8865" width="200" height="200"><path d="M512 85.333333C369.792 85.333333 256 197.76 256 333.653333c0 35.925333 8.533333 73.301333 24.917333 108.032l0.085334 0.128c23.594667 50.346667 87.296 133.888 148.821333 208.341334a4157.866667 4157.866667 0 0 0 79.530667 93.354666l2.090666 2.389334 0.896-1.109334c19.968-23.466667 47.189333-55.893333 76.373334-91.904 59.136-73.045333 123.349333-157.141333 152.576-210.645333 19.157333-35.072 26.709333-64.853333 26.709333-106.709333C768 198.4 653.909333 85.333333 512 85.333333z m0 725.333334l-31.573333 28.714666-0.682667-0.768-1.877333-2.048a2813.354667 2813.354667 0 0 1-32.682667-36.778666 4242.346667 4242.346667 0 0 1-81.194667-95.274667c-60.16-72.832-131.2-164.608-160.213333-226.389333A339.968 339.968 0 0 1 170.666667 333.610667C170.666667 148.522667 324.821333 0 512 0c187.477333 0 341.333333 149.717333 341.333333 335.530667 0 55.68-10.922667 99.584-37.12 147.626666-33.536 61.354667-102.698667 151.210667-161.194666 223.445334a5192.448 5192.448 0 0 1-101.845334 121.728l-6.656 7.68-1.792 2.048-0.597333 0.682666L512 810.666667z m0 0l32.128 28.074666a42.752 42.752 0 0 1-63.701333 0.64L512 810.666667z" p-id="8866"></path><path d="M512 256a85.333333 85.333333 0 1 1 0 170.666667 85.333333 85.333333 0 0 1 0-170.666667z m170.666667 85.333333a170.666667 170.666667 0 1 0-341.333334 0 170.666667 170.666667 0 0 0 341.333334 0zM859.008 661.418667a42.666667 42.666667 0 0 0 15.786667 58.24C924.714667 748.373333 938.666667 774.869333 938.666667 791.722667c0 10.837333-5.248 25.344-23.68 42.965333-18.56 17.706667-47.658667 35.626667-87.082667 51.541333C749.184 918.016 637.525333 938.666667 512 938.666667s-237.184-20.650667-315.904-52.437334c-39.466667-15.914667-68.522667-33.834667-87.04-51.541333C90.538667 817.066667 85.333333 802.56 85.333333 791.722667c0-16.853333 13.909333-43.349333 63.914667-72.064a42.666667 42.666667 0 0 0-42.496-73.984C49.237333 678.656 0 727.381333 0 791.722667c0 41.514667 20.992 76.885333 50.090667 104.661333 28.928 27.648 68.608 50.602667 114.048 68.949333C255.317333 1002.24 378.325333 1024 512 1024c133.674667 0 256.682667-21.802667 347.861333-58.666667 45.44-18.346667 85.12-41.301333 114.048-68.949333 29.098667-27.733333 50.090667-63.146667 50.090667-104.661333 0-64.341333-49.237333-113.066667-106.752-146.048a42.666667 42.666667 0 0 0-58.24 15.786666z" p-id="8867"></path></svg>