<svg t="1697771986947" class="icon" viewBox="0 0 1024 1024" version="1.1" xmlns="http://www.w3.org/2000/svg" p-id="15637" width="200" height="200"><path d="M298.666667 298.666667c17.066667 0 32-14.933333 32-32v-128c0-17.066667-14.933333-32-32-32s-32 14.933333-32 32v128c0 17.066667 14.933333 32 32 32zM576 298.666667c17.066667 0 32-14.933333 32-32v-128c0-17.066667-14.933333-32-32-32s-32 14.933333-32 32v128c0 17.066667 14.933333 32 32 32z" p-id="15638"></path><path d="M469.333333 725.333333c0-104.533333 64-196.266667 153.6-234.666666H224c-17.066667 0-32-14.933333-32-32s14.933333-32 32-32h405.333333c17.066667 0 32 14.933333 32 32 0 8.533333-4.266667 14.933333-8.533333 21.333333 23.466667-6.4 46.933333-10.666667 72.533333-10.666667 6.4 0 14.933333 0 21.333334 2.133334V277.333333c0-46.933333-38.4-85.333333-85.333334-85.333333v74.666667c0 53.333333-42.666667 96-96 96S469.333333 320 469.333333 266.666667V192h-85.333333v74.666667c0 53.333333-42.666667 96-96 96S192 320 192 266.666667V192c-46.933333 0-85.333333 38.4-85.333333 85.333333v554.666667c0 46.933333 38.4 85.333333 85.333333 85.333333h364.8c-53.333333-46.933333-87.466667-115.2-87.466667-192z m-53.333333 21.333334h-192c-17.066667 0-32-14.933333-32-32s14.933333-32 32-32h192c17.066667 0 32 14.933333 32 32s-14.933333 32-32 32z m0-128h-192c-17.066667 0-32-14.933333-32-32s14.933333-32 32-32h192c17.066667 0 32 14.933333 32 32s-14.933333 32-32 32z" p-id="15639"></path><path d="M725.333333 533.333333c-106.666667 0-192 87.466667-192 192s87.466667 192 192 192 192-87.466667 192-192-85.333333-192-192-192z m74.666667 256h-106.666667c-17.066667 0-32-14.933333-32-32v-128c0-17.066667 14.933333-32 32-32s32 14.933333 32 32V725.333333h74.666667c17.066667 0 32 14.933333 32 32s-14.933333 32-32 32z" p-id="15640"></path></svg>